<svg width="324" height="205" xmlns="http://www.w3.org/2000/svg" xmlns:xlink="http://www.w3.org/1999/xlink" overflow="hidden"><defs><clipPath id="clip0"><rect x="429" y="186" width="324" height="205"/></clipPath></defs><g clip-path="url(#clip0)" transform="translate(-429 -186)"><path d="M430 192.296C430 188.819 432.819 186 436.296 186L745.704 186C749.181 186 752 188.819 752 192.296L752 384.704C752 388.181 749.181 391 745.704 391L436.296 391C432.819 391 430 388.181 430 384.704Z" fill="#333F50" fill-rule="evenodd" fill-opacity="0.921569"/><path d="M461.5 260.314C461.5 257.655 463.655 255.5 466.314 255.5L507.686 255.5C510.345 255.5 512.5 257.655 512.5 260.314L512.5 295.686C512.5 298.345 510.345 300.5 507.686 300.5L466.314 300.5C463.655 300.5 461.5 298.345 461.5 295.686Z" stroke="#000000" stroke-width="1.33333" stroke-miterlimit="8" fill="#FFD8A3" fill-rule="evenodd" fill-opacity="0.941176"/><path d="M0 0 25.7008 0.000104987" stroke="#000000" stroke-width="0.666667" stroke-miterlimit="8" fill="none" fill-rule="evenodd" transform="matrix(-1 0 0 1 487.201 270.5)"/><path d="M0 0 51.0236 0.000104987" stroke="#000000" stroke-width="0.666667" stroke-miterlimit="8" fill="none" fill-rule="evenodd" transform="matrix(-1 0 0 1 512.524 285.5)"/><path d="M474.5 270.5 474.5 285.618" stroke="#000000" stroke-width="0.666667" stroke-miterlimit="8" fill="none" fill-rule="evenodd"/><path d="M0 0 12.8504 0.000104987" stroke="#000000" stroke-width="0.666667" stroke-miterlimit="8" fill="none" fill-rule="evenodd" transform="matrix(-1 0 0 1 512.35 270.5)"/><path d="M0 0 8.69291 15.1181" stroke="#000000" stroke-width="0.666667" stroke-miterlimit="8" fill="none" fill-rule="evenodd" transform="matrix(-1 0 0 1 487.193 285.5)"/><path d="M496.193 300.618 487.5 285.5" stroke="#000000" stroke-width="0.666667" stroke-miterlimit="8" fill="none" fill-rule="evenodd"/><path d="M499.5 270.5 499.5 285.618" stroke="#000000" stroke-width="0.666667" stroke-miterlimit="8" fill="none" fill-rule="evenodd"/><path d="M0 0 8.69291 15.1181" stroke="#000000" stroke-width="0.666667" stroke-miterlimit="8" fill="none" fill-rule="evenodd" transform="matrix(-1 0 0 1 495.193 255.5)"/><path d="M487.193 270.618 478.5 255.5" stroke="#000000" stroke-width="0.666667" stroke-miterlimit="8" fill="none" fill-rule="evenodd"/></g></svg>